<?xml version="1.0" standalone="no"?>
<!DOCTYPE svg PUBLIC "-//W3C//DTD SVG 20010904//EN"
 "http://www.w3.org/TR/2001/REC-SVG-20010904/DTD/svg10.dtd">
<svg version="1.0" xmlns="http://www.w3.org/2000/svg"
 width="512.000000pt" height="512.000000pt" viewBox="0 0 512.000000 512.000000"
 preserveAspectRatio="xMidYMid meet">
<metadata>
Created by potrace 1.16, written by Peter Selinger 2001-2019
</metadata>
<g transform="translate(0.000000,512.000000) scale(0.100000,-0.100000)"
fill="#FF193A" stroke="none">
<path d="M2465 4503 c-344 -17 -654 -125 -915 -318 -87 -65 -333 -306 -413
-405 -259 -321 -402 -776 -383 -1225 12 -316 107 -611 275 -861 79 -118 115
-159 129 -150 22 14 12 49 -37 125 -113 176 -201 395 -248 620 -24 114 -27
146 -27 336 0 220 8 301 49 466 39 158 72 245 161 424 124 253 234 396 394
514 182 135 392 241 605 306 185 56 275 69 485 69 157 1 203 -3 300 -23 369
-76 700 -252 989 -527 388 -369 588 -867 568 -1413 -8 -232 -60 -407 -199
-662 -33 -61 -57 -117 -54 -124 9 -25 54 -30 77 -9 32 29 153 280 187 391 42
133 62 244 68 393 7 140 -14 337 -40 389 -9 16 -25 67 -35 113 -57 242 -210
550 -392 789 -108 141 -173 213 -284 311 -163 145 -354 267 -536 342 -219 90
-499 140 -724 129z"/>
<path d="M2881 4169 c-190 -29 -375 -156 -447 -307 -15 -31 -29 -59 -31 -61
-7 -10 -183 169 -223 227 -51 75 -109 112 -173 112 -139 0 -203 -153 -108
-257 29 -32 29 -33 9 -47 -17 -12 -25 -12 -53 0 -32 13 -35 12 -49 -8 -9 -12
-16 -26 -16 -31 0 -4 21 -30 46 -57 l47 -50 -269 0 c-305 0 -319 -3 -386 -78
-43 -47 -64 -92 -73 -155 -7 -42 19 -899 33 -1102 l7 -100 32 -15 c25 -11 33
-22 33 -41 1 -93 53 -781 61 -814 18 -65 48 -116 108 -178 94 -99 145 -119
343 -133 79 -5 109 -13 198 -51 262 -111 527 -138 811 -83 138 26 263 71 408
145 99 51 142 67 201 76 41 6 90 17 107 24 54 23 128 100 156 163 29 65 33
108 59 732 l12 294 32 36 32 35 3 332 3 331 -30 49 c-27 43 -32 61 -36 140 -7
113 -36 183 -107 252 -61 59 -118 88 -203 103 -46 8 -69 18 -84 35 -30 35 -75
63 -101 63 -22 0 -23 4 -23 69 0 59 6 82 35 147 19 42 35 92 35 111 0 29 -5
36 -35 49 -95 39 -259 59 -364 43z m255 -99 c61 -13 79 -24 71 -43 -5 -14 -11
-14 -54 0 -32 11 -87 16 -163 17 -95 0 -127 -4 -183 -23 -78 -26 -172 -86
-218 -138 -39 -45 -71 -116 -67 -146 3 -19 7 -16 35 24 111 160 291 249 478
236 69 -5 145 -22 145 -32 0 -2 -3 -10 -6 -18 -5 -13 -11 -13 -51 -1 -68 21
-189 18 -266 -6 -128 -40 -254 -150 -279 -246 -11 -40 -15 -44 -44 -44 -27 0
-34 5 -43 31 -18 52 -13 92 20 157 93 188 364 288 625 232z m-1066 -5 c16 -9
37 -30 46 -48 9 -17 84 -99 166 -182 82 -82 154 -157 159 -167 9 -17 -2 -18
-202 -18 l-212 0 -43 44 c-27 26 -44 53 -44 66 0 37 28 60 74 60 23 0 59 5 81
11 40 11 40 11 82 -36 24 -26 43 -51 43 -56 0 -5 -42 -9 -94 -9 -52 0 -97 -4
-101 -9 -3 -5 5 -17 17 -25 26 -19 187 -23 219 -6 27 15 24 53 -8 101 -35 54
-244 219 -276 219 -24 0 5 -49 51 -87 l53 -43 -42 0 c-49 0 -90 22 -113 60
-23 40 -20 74 10 109 21 25 33 31 65 31 22 0 53 -7 69 -15z m741 -230 c-49
-53 -61 -81 -61 -141 l0 -44 -55 0 c-51 0 -55 2 -55 23 0 51 82 146 165 190
49 26 50 20 6 -28z m299 27 c29 -14 37 -25 44 -60 5 -23 7 -44 5 -46 -2 -2
-69 -9 -149 -15 -79 -6 -155 -14 -167 -17 -34 -9 -30 23 8 69 64 77 180 109
259 69z m-1215 -102 c10 -11 16 -20 13 -20 -3 0 -13 9 -23 20 -10 11 -16 20
-13 20 3 0 13 -9 23 -20z m1370 -90 c18 -20 17 -20 -218 -20 -139 0 -237 4
-237 9 0 9 29 14 140 24 19 2 94 5 166 5 119 2 132 0 149 -18z m-1479 -85
c-37 -13 -70 -25 -71 -27 -2 -2 291 -3 650 -3 359 0 652 2 650 3 -2 2 -34 12
-72 23 l-68 19 266 -4 c261 -3 268 -4 322 -29 107 -49 177 -148 177 -250 0
-32 -3 -38 -17 -33 -37 15 -134 18 -197 7 -77 -13 -164 -49 -215 -89 -33 -25
-45 -27 -151 -32 l-115 -5 -3 -394 c-1 -217 1 -398 5 -402 5 -5 112 -9 240
-10 128 -1 237 -5 242 -8 5 -4 11 -22 13 -41 3 -31 6 -35 33 -35 27 0 30 3 33
38 l3 37 55 0 54 0 0 -120 0 -120 -68 0 -69 0 -18 40 c-29 64 -65 80 -178 80
-93 0 -97 -1 -132 -31 -60 -53 -51 -59 90 -59 112 0 127 -2 145 -20 20 -20 25
-59 11 -95 -6 -14 -17 -20 -42 -20 -29 0 -33 -3 -34 -25 0 -24 -4 -26 -90 -37
-194 -27 -350 -103 -419 -202 -46 -66 -21 -70 60 -10 137 101 204 129 355 149
52 7 110 21 131 31 37 19 98 84 98 106 0 7 9 17 19 23 25 13 118 13 126 0 9
-15 -15 -611 -27 -650 -14 -46 -52 -97 -87 -114 -15 -8 -104 -27 -197 -41 -93
-15 -279 -47 -414 -71 -271 -51 -281 -51 -740 -24 -91 6 -255 14 -365 20 -110
5 -216 14 -235 21 -57 19 -97 55 -125 113 -25 52 -27 64 -45 412 -11 198 -21
380 -23 406 -4 47 -4 48 22 40 38 -10 332 -6 361 6 l25 10 -28 11 c-15 6 -100
14 -189 18 -156 8 -161 9 -180 33 -17 23 -19 58 -28 400 -5 206 -12 402 -16
434 -10 95 -23 45 -31 -125 -9 -177 -6 -194 -38 249 -19 260 -17 291 26 346
43 55 67 61 289 66 113 4 225 7 250 8 l45 2 -69 -25z m1796 -355 c47 -14 93
-59 102 -102 3 -18 1 -132 -6 -253 -13 -212 -13 -217 -19 -125 -4 52 -8 120
-9 150 -4 66 -28 -267 -29 -397 l-1 -93 -55 0 -55 0 0 49 c0 91 -62 98 -68 7
l-3 -46 -137 0 c-150 0 -182 5 -182 27 0 23 56 73 81 73 22 0 59 26 59 42 0 4
-21 8 -48 8 -69 0 -112 -27 -142 -88 -47 -96 -50 -80 -50 246 0 297 0 299 23
319 12 11 38 23 57 27 19 3 70 31 115 61 44 29 94 59 110 65 99 38 189 48 257
30z m-1037 -2210 c0 -16 -46 -26 -73 -15 -14 5 -11 9 13 20 37 17 60 15 60 -5z"/>
<path d="M1360 3502 c-28 -28 -30 -36 -29 -99 0 -69 2 -69 29 5 25 65 -22 62
967 63 494 1 912 4 928 8 93 20 -46 26 -735 33 -404 4 -824 10 -932 14 l-197
6 -31 -30z"/>
<path d="M2250 3290 c-157 -58 -260 -188 -277 -350 -6 -62 2 -114 16 -105 5 2
17 37 26 77 37 151 108 247 225 302 57 27 76 31 150 31 75 0 93 -4 150 -31 86
-41 152 -110 202 -209 l40 -80 -6 53 c-11 110 -112 244 -223 298 -79 38 -220
45 -303 14z"/>
<path d="M1401 3256 c-7 -8 -11 -23 -9 -33 3 -16 17 -18 113 -21 85 -2 115 1
130 12 16 12 18 18 9 33 -9 15 -28 18 -121 21 -88 2 -113 0 -122 -12z"/>
<path d="M2290 3156 c-90 -24 -146 -75 -176 -158 -27 -77 -9 -196 42 -284 l26
-44 -161 0 c-213 0 -201 -12 -201 198 0 86 -5 175 -10 197 -11 48 -45 79 -74
69 -12 -3 -35 -6 -52 -5 -17 0 -39 -5 -48 -12 -17 -12 -18 -40 -17 -372 1
-240 5 -363 13 -372 16 -19 46 -16 58 6 6 13 10 145 10 360 0 273 3 341 13
341 33 0 37 -23 37 -200 0 -156 2 -178 20 -207 38 -64 53 -67 280 -73 193 -5
207 -6 243 -28 35 -23 37 -26 37 -78 0 -53 8 -66 28 -41 8 11 32 103 32 127 0
5 -27 28 -60 51 -89 62 -142 141 -155 232 -23 155 63 247 222 235 116 -8 196
-72 228 -182 21 -69 6 -141 -39 -195 -30 -36 -34 -47 -40 -127 -3 -48 -4 -90
-1 -93 3 -3 14 -1 23 5 16 11 24 34 37 116 3 21 21 55 40 78 41 49 55 94 54
175 -1 71 -13 108 -56 168 -69 98 -225 148 -353 113z"/>
<path d="M1440 3120 c-13 -8 -15 -53 -11 -327 2 -204 7 -323 14 -331 6 -7 22
-12 36 -10 l26 3 3 324 c2 230 -1 328 -9 337 -13 16 -38 18 -59 4z"/>
<path d="M2220 3035 c-32 -38 58 -175 115 -175 14 0 25 5 25 11 0 10 -117 179
-124 179 -2 0 -9 -7 -16 -15z"/>
<path d="M2365 3010 c-11 -17 15 -51 63 -81 84 -53 137 -27 75 36 -44 44 -122
70 -138 45z"/>
<path d="M2300 2749 c0 -13 49 -61 103 -102 36 -27 37 -29 37 -97 0 -55 3 -70
15 -70 15 0 31 46 41 121 7 53 -6 68 -107 123 -69 38 -89 43 -89 25z"/>
<path d="M2760 2575 c-16 -19 -10 -45 15 -61 18 -12 24 -11 43 2 27 19 28 50
3 64 -27 14 -46 13 -61 -5z m50 -25 c0 -5 -4 -10 -10 -10 -5 0 -10 5 -10 10 0
6 5 10 10 10 6 0 10 -4 10 -10z"/>
<path d="M1870 2490 c-31 -31 -36 -68 -13 -98 42 -57 111 -51 141 12 16 32 2
80 -29 96 -29 16 -78 11 -99 -10z m88 -22 c14 -14 16 -44 3 -52 -17 -11 -41 6
-41 28 0 35 16 46 38 24z"/>
<path d="M2383 2395 c-3 -9 -1 -21 4 -26 5 -5 107 -8 249 -7 231 3 239 4 239
23 0 19 -8 20 -243 23 -214 2 -243 0 -249 -13z"/>
<path d="M2007 2252 c-48 -52 -40 -128 17 -163 41 -25 117 -26 139 -1 23 25
13 32 -48 32 -80 0 -112 51 -62 98 20 19 35 22 109 22 94 0 129 7 106 21 -7 5
-65 9 -129 9 -98 0 -118 -3 -132 -18z"/>
<path d="M3146 2263 c-4 -5 -123 -11 -264 -15 -840 -25 -772 -21 -788 -42 -12
-17 -12 -23 0 -40 13 -20 22 -21 264 -21 l251 0 31 30 31 30 192 8 c106 4 208
12 227 17 31 8 85 39 69 40 -3 0 -9 -3 -13 -7z"/>
<path d="M3035 2111 c-161 -6 -185 -13 -230 -68 -12 -14 -39 -28 -65 -34 -101
-22 -160 -97 -160 -201 0 -31 7 -73 16 -94 15 -37 60 -94 75 -94 3 0 12 20 19
45 12 44 12 47 -15 75 -33 34 -36 93 -9 139 17 29 79 71 106 71 7 0 37 18 66
39 62 47 70 49 337 59 181 6 200 9 203 25 2 10 -2 24 -8 32 -13 16 -43 17
-335 6z"/>
<path d="M1592 2098 c-7 -7 -12 -24 -12 -38 0 -31 17 -50 45 -50 28 0 45 19
45 50 0 31 -17 50 -45 50 -12 0 -26 -5 -33 -12z"/>
<path d="M2060 2003 c-39 -27 -49 -45 -50 -88 0 -40 19 -78 50 -102 44 -34
129 -21 185 28 58 51 41 86 -21 44 -41 -28 -95 -33 -117 -10 -9 8 -18 29 -22
46 -8 37 16 69 54 69 25 1 25 1 7 15 -26 20 -56 19 -86 -2z"/>
<path d="M1451 1914 c-29 -21 -60 -88 -61 -131 0 -75 47 -135 121 -154 27 -7
49 -18 50 -23 0 -6 4 -66 8 -133 6 -117 8 -124 36 -153 16 -17 46 -35 67 -41
25 -6 214 -9 531 -7 l492 4 270 52 c380 73 400 78 430 114 25 29 33 77 18 114
-5 14 -9 9 -17 -21 -6 -21 -22 -46 -36 -56 -17 -12 -128 -35 -345 -73 l-320
-56 -496 0 c-466 0 -498 1 -519 18 -21 17 -23 29 -29 165 l-6 147 -44 38 c-40
34 -43 40 -32 60 18 34 57 45 93 27 55 -27 93 20 48 60 -10 9 -39 20 -64 22
-90 11 -165 -63 -152 -151 l6 -41 -20 24 c-28 33 -26 89 5 135 20 29 23 41 15
57 -13 23 -19 24 -49 3z"/>
<path d="M2716 1873 c-30 -30 -41 -62 -31 -92 10 -34 28 -24 70 42 52 81 51
77 17 77 -18 0 -39 -10 -56 -27z"/>
<path d="M3350 1808 c-82 -51 -104 -78 -81 -101 7 -7 31 3 79 31 82 49 94 62
90 97 l-3 26 -85 -53z"/>
<path d="M2302 1828 c-22 -22 -15 -67 12 -80 31 -14 53 -5 68 27 9 21 8 28 -7
45 -20 22 -55 26 -73 8z m48 -38 c0 -5 -5 -10 -11 -10 -5 0 -7 5 -4 10 3 6 8
10 11 10 2 0 4 -4 4 -10z"/>
<path d="M1816 1798 c-9 -12 -16 -29 -16 -38 0 -29 30 -60 59 -60 56 0 83 73
39 104 -32 22 -64 20 -82 -6z m74 -38 c0 -5 -2 -10 -4 -10 -3 0 -8 5 -11 10
-3 6 -1 10 4 10 6 0 11 -4 11 -10z"/>
<path d="M3140 1813 c-52 -7 -168 -55 -203 -84 -45 -37 -50 -64 -11 -55 42 11
238 96 252 110 18 17 -4 33 -38 29z"/>
<path d="M2041 1693 c-68 -34 -90 -116 -50 -183 25 -41 42 -56 88 -76 73 -33
235 -13 271 33 21 27 26 76 11 116 -13 35 -69 87 -116 108 -52 24 -157 25
-204 2z m189 -55 c41 -21 80 -71 66 -85 -3 -3 -28 4 -55 16 -27 11 -59 21 -70
21 -33 0 -36 -21 -8 -44 15 -12 39 -31 54 -43 l28 -22 -40 -1 c-97 0 -169 49
-169 116 0 48 23 64 94 64 38 0 70 -7 100 -22z"/>
<path d="M3063 1665 c-139 -50 -217 -96 -221 -128 -2 -15 1 -27 6 -27 5 0 47
17 93 39 46 21 112 48 146 61 67 24 99 51 90 75 -8 19 -6 20 -114 -20z"/>
<path d="M1748 1649 c-37 -21 -11 -74 33 -67 35 5 47 33 25 57 -21 23 -33 25
-58 10z"/>
<path d="M2557 1562 c-19 -21 -22 -54 -6 -83 12 -23 66 -49 86 -42 17 7 17 38
-1 53 -8 6 -16 28 -18 48 -2 28 -8 38 -24 40 -11 2 -28 -6 -37 -16z"/>
<path d="M3082 2918 c-18 -18 -15 -73 6 -91 10 -10 28 -17 40 -17 19 0 22 5
20 33 l-3 32 90 5 c82 5 90 7 90 25 0 19 -8 20 -115 23 -81 2 -119 -1 -128
-10z"/>
<path d="M3447 2794 c-10 -11 -9 -42 3 -49 20 -12 51 6 48 28 -3 22 -36 35
-51 21z"/>
<path d="M3467 2699 c-26 -15 -21 -48 7 -55 31 -7 46 1 46 26 0 25 -30 41 -53
29z"/>
<path d="M3223 2673 c-18 -7 -16 -38 2 -53 20 -17 47 5 43 34 -3 21 -22 29
-45 19z"/>
<path d="M3823 3524 c-6 -17 45 -77 62 -71 15 6 6 39 -18 65 -24 26 -35 28
-44 6z"/>
<path d="M688 3478 c-31 -24 -27 -74 7 -90 52 -23 100 46 59 86 -19 19 -44 20
-66 4z"/>
<path d="M3763 3474 c-7 -19 50 -80 66 -70 27 17 -4 86 -40 86 -11 0 -22 -7
-26 -16z"/>
<path d="M3900 3401 c0 -17 62 -141 71 -141 15 0 21 45 9 75 -6 17 -21 40 -32
53 -22 22 -48 30 -48 13z"/>
<path d="M3847 3385 c-21 -20 -22 -39 -2 -55 12 -10 18 -10 30 0 18 15 19 31
2 54 -13 17 -14 17 -30 1z"/>
<path d="M4372 3271 c-11 -7 -4 -32 32 -124 46 -113 103 -317 127 -447 6 -36
15 -119 19 -185 7 -103 8 -92 5 80 -4 224 -19 320 -78 498 -40 117 -67 179
-82 184 -5 1 -16 -1 -23 -6z"/>
<path d="M712 3205 c-26 -58 -71 -258 -82 -370 -20 -190 -3 -484 36 -639 21
-82 10 -82 -15 1 -43 146 -52 216 -58 426 -6 209 -10 231 -42 193 -29 -35 -51
-487 -31 -651 13 -114 27 -150 55 -150 23 0 24 20 7 130 -6 39 -13 104 -16
145 l-6 75 29 -110 c67 -250 176 -494 261 -585 31 -34 74 -42 63 -12 -3 9 14
-12 38 -48 24 -36 73 -94 108 -130 35 -36 52 -49 37 -30 -113 148 -176 235
-204 281 -19 30 -31 45 -28 34 l6 -20 -15 20 c-9 11 -14 28 -11 38 2 10 0 14
-7 10 -7 -4 -8 0 -4 11 4 9 3 15 -2 12 -12 -8 -66 142 -101 279 -39 154 -60
331 -60 508 0 182 12 295 46 442 38 160 39 165 22 165 -8 0 -20 -11 -26 -25z
m183 -1495 c9 -16 13 -30 11 -30 -3 0 -12 14 -21 30 -9 17 -13 30 -11 30 3 0
12 -13 21 -30z"/>
<path d="M3902 3221 c-18 -11 -12 -41 10 -55 14 -8 22 -7 35 7 29 29 -10 71
-45 48z"/>
<path d="M4189 3116 c-9 -18 -7 -44 10 -112 63 -274 51 -585 -34 -854 -71
-223 -201 -453 -377 -666 -32 -40 -63 -87 -68 -105 -19 -65 -9 -189 15 -189
30 0 241 238 330 373 l38 58 -31 29 c-18 16 -32 33 -32 38 0 6 24 51 54 102
146 246 216 517 216 831 0 191 -39 467 -72 506 -16 20 -37 15 -49 -11z"/>
<path d="M3984 2640 c-59 -23 -70 -95 -24 -142 27 -26 36 -30 68 -25 47 8 72
38 72 87 0 30 -6 44 -31 64 -32 27 -50 30 -85 16z m75 -58 c11 -20 -2 -42 -25
-42 -18 0 -37 28 -30 45 8 21 43 19 55 -3z"/>
<path d="M1217 1252 c91 -89 193 -172 308 -248 74 -50 85 -56 85 -51 0 3 -23
20 -51 37 -85 55 -237 175 -338 266 l-96 86 92 -90z"/>
<path d="M3575 1063 c-94 -65 -318 -176 -460 -229 -120 -44 -289 -88 -404
-104 -205 -30 -531 25 -827 141 -107 42 -114 44 -114 30 0 -11 132 -71 242
-109 48 -17 142 -43 210 -59 113 -25 141 -27 333 -28 233 0 294 9 485 71 178
57 471 214 595 318 48 40 26 29 -60 -31z"/>
</g>
</svg>